/* XPM */
static char * icon_out_lock_xpm[] = {
"48 48 135 2",
"  	c None",
". 	c #000000",
"+ 	c #000F00",
"@ 	c #046304",
"# 	c #024502",
"$ 	c #000900",
"% 	c #023602",
"& 	c #3BA43B",
"* 	c #57B457",
"= 	c #64BC64",
"- 	c #2A992A",
"; 	c #1E901E",
"> 	c #057905",
", 	c #000200",
"' 	c #229322",
") 	c #51B151",
"! 	c #45AA45",
"~ 	c #012A01",
"{ 	c #000100",
"] 	c #000600",
"^ 	c #0A7F0A",
"/ 	c #035B03",
"( 	c #047304",
"_ 	c #108410",
": 	c #158815",
"< 	c #034B03",
"[ 	c #012E01",
"} 	c #329E32",
"| 	c #023202",
"1 	c #000400",
"2 	c #013401",
"3 	c #168916",
"4 	c #024202",
"5 	c #35A035",
"6 	c #000C00",
"7 	c #000800",
"8 	c #012301",
"9 	c #000A00",
"0 	c #023C02",
"a 	c #001400",
"b 	c #001100",
"c 	c #011E01",
"d 	c #4CAE4C",
"e 	c #012501",
"f 	c #035903",
"g 	c #011801",
"h 	c #035403",
"i 	c #011B01",
"j 	c #269626",
"k 	c #011C01",
"l 	c #002400",
"m 	c #004500",
"n 	c #006500",
"o 	c #005100",
"p 	c #005300",
"q 	c #006B00",
"r 	c #006900",
"s 	c #159215",
"t 	c #95D895",
"u 	c #83D083",
"v 	c #76CA76",
"w 	c #6DC66D",
"x 	c #6BC56B",
"y 	c #67C367",
"z 	c #61C061",
"A 	c #59BC59",
"B 	c #55BA55",
"C 	c #4FB74F",
"D 	c #4BB54B",
"E 	c #46B246",
"F 	c #3DAD3D",
"G 	c #35A835",
"H 	c #28A028",
"I 	c #9FDC9F",
"J 	c #71C871",
"K 	c #3CAC3C",
"L 	c #38AA38",
"M 	c #2EA42E",
"N 	c #2BA22B",
"O 	c #279F27",
"P 	c #229C22",
"Q 	c #209A20",
"R 	c #1E991E",
"S 	c #179417",
"T 	c #169316",
"U 	c #139113",
"V 	c #108E10",
"W 	c #0C8B0C",
"X 	c #098809",
"Y 	c #038303",
"Z 	c #007800",
"` 	c #005B00",
" .	c #004200",
"..	c #9DDB9D",
"+.	c #42B042",
"@.	c #30A530",
"#.	c #2AA12A",
"$.	c #129012",
"%.	c #0B8A0B",
"&.	c #058505",
"*.	c #028202",
"=.	c #48B348",
"-.	c #199519",
";.	c #0D8C0D",
">.	c #007E00",
",.	c #007400",
"'.	c #005600",
").	c #004000",
"!.	c #0E8D0E",
"~.	c #078707",
"{.	c #63C163",
"].	c #44B144",
"^.	c #33A733",
"/.	c #1A961A",
"(.	c #007600",
"_.	c #007000",
":.	c #005900",
"<.	c #5BBD5B",
"[.	c #048404",
"}.	c #007A00",
"|.	c #006D00",
"1.	c #005800",
"2.	c #006200",
"3.	c #006400",
"4.	c #003E00",
"5.	c #57BB57",
"6.	c #018101",
"7.	c #3AAB3A",
"8.	c #51B851",
"9.	c #005E00",
"0.	c #005400",
"a.	c #004E00",
"b.	c #004C00",
"c.	c #002C00",
"d.	c #002300",
"                                                                                                ",
"                                                                                                ",
"                                                                                                ",
"                                                                                                ",
"                                . . . .                                                         ",
"                          . . . + @ # $ . . .                                                   ",
"                        . . % & * = - ; > + . .                                                 ",
"                      . , ' = ) ! - ; ; ; > ~ { .                                               ",
"                    . ] ! = & ' ^ / ( _ ; : < [ , .                                             ",
"                  . , ! = } _ | . . 1 2 ; 3 _ 4 | { .                                           ",
"                . . ; = 5 > 6 . . . . . + : ; > | ~ .                                           ",
"                . [ = & > 7 .           . $ _ 3 / 8 9 .                                         ",
"                . & * : 0 . .             . a - : 0 ~ .                                         ",
"                b * } # ] .                 . _ & @ c 1 .                                       ",
"              . @ * ^ 0 . .                   ] d _ e b .                                       ",
"              . ; * f 0 .                     . ! ; 0 g .                                       ",
"              . - ) h ~ .                     . 5 - # c .                                       ",
"              . ^ & h i .                     . j ' h k .                                       ",
"          l l l m n n o l l l l l l l l l l l l p q r l l l l                                   ",
"        l s t t u v w w x y z z A B B A A B B B C D E F G H p l                                 ",
"        l I J x C K L M N O P Q R S S S S T U V W X Y Z q `  .l                                 ",
"        l ..y z +.@.#.O P P R T U V $.$.$.V V %.X &.*.Z q `  .l                                 ",
"        l I x y =.G M O P Q -.T $.$.$.$.;.V W X X &.>.,.n '.).l                                 ",
"        l ..x z +.#.O P R S s V !.%.%.%.~.X X &.*.X &.>.,.` m l                                 ",
"        l ..y {.].G ^.Q /.S U $.V V V $.;.V %.%.X &.*.(._.:. .l                                 ",
"        l t z <.F #.O O P Q -.T $.$.$.$.;.V W X X X [.}.,.`  .l                 .               ",
"        l ..z z +.M N P R S s V !.%.%.%.~.X X &.*.&.[.Z |.`  .l                 . .             ",
"        l t z <.F N O Q /.S U $.V V V $.;.V %.%.X *.}._.n 1.).l                 . . .           ",
"        l ..z z F #.O O P Q -.T $.$.$.$.;.V W X X Y >.,.q :.).l                 . . . .         ",
"        l I x {.].G ^.P R S s V !.%.%.%.~.X X &.*.[.>._.q :. .l     . . . . . . . . . . .       ",
"        l t {.<.K O Q Q /.S U $.V V V $.;.V %.%.X [.*.,.|.2.).l     . . . . . . . . . . .       ",
"        l ..{.z F N O O P Q -.T $.$.$.$.;.V W X X >.}.q 3.2.4.l                 . . . .         ",
"        l I x {.E G M P R S s V !.%.%.%.~.X X &.*.*.>._.n >.).l                 . . .           ",
"        l t z B K O O Q /.S U $.V V V $.;.V %.%.X Y >._.q &.).l                 . .             ",
"        l t z B ^.O Q O P Q -.T $.$.$.$.;.V W X X *.}._.r &.4.l                 .               ",
"        l t <.B G O P P R S s V !.%.%.%.~.X X &.*.}.(.|.3.s 4.l                                 ",
"        l t z 5.K O P Q /.S U $.V V V $.;.V %.%.X Y >.,.q -.).l                                 ",
"        l ..z <.F #.O O P Q -.T $.$.$.$.;.V W X X *.>.Z }./.).l                                 ",
"        l t z <.K O Q P R S s V !.%.%.%.~.X X &.*.>.}.Z 6./.).l                                 ",
"        l t A B 7.P P Q /.S U $.V V V $.;.V %.%.X [.*.V [.U ).l                                 ",
"        l t 5.8.^.Q Q R T U V W %.X !.$.$.R R /./.O O P [.r 4.l                                 ",
"        l q U V [.Z Z _._.q q n n 3.n n 9.3.9.` :.'.0.a.b.m c.d.                                ",
"          d.l l l l l l l l l l l l l l l l l l l l l l l l d.                                  ",
"                                                                                                ",
"                                                                                                ",
"                                                                                                ",
"                                                                                                ",
"                                                                                                "};
