/* XPM */
static char * icon_out_capable_xpm[] = {
"48 48 40 1",
" 	c None",
".	c #000000",
"+	c #FFFC03",
"@	c #FFFC0F",
"#	c #FFFC07",
"$	c #FFFC01",
"%	c #EDEB3D",
"&	c #F0EE4E",
"*	c #F2F054",
"=	c #F2F030",
"-	c #F5F32B",
";	c #FFFC11",
">	c #F0EE4A",
",	c #EEEC42",
"'	c #FFFC05",
")	c #FDFA17",
"!	c #FFFC0D",
"~	c #FAF71E",
"{	c #FFFC0B",
"]	c #EFED39",
"^	c #EFED45",
"/	c #F8F480",
"(	c #F6F272",
"_	c #F5F36D",
":	c #F3F161",
"<	c #F2F15E",
"[	c #F2F056",
"}	c #F2F052",
"|	c #EDEB41",
"1	c #FAF68C",
"2	c #F5F367",
"3	c #F4F264",
"4	c #F1EF33",
"5	c #FFFC13",
"6	c #F9F585",
"7	c #F7F525",
"8	c #F3F159",
"9	c #FAF700",
"0	c #F3F15B",
"a	c #FCF900",
"                                                ",
"                                                ",
"                                                ",
"                                                ",
"                               ......           ",
"                            ....+@#$....        ",
"                           ..$#%&*=-;+$..       ",
"                          ..$-*>,=---;'$..      ",
"                         ..$,*%-)!;)-~{'$..     ",
"                         .$,*])'$$$'-~)#'$.     ",
"                        ..-*];$......~-;''..    ",
"                        .'*%;$..    ..)~!'$.    ",
"                        .%&~#$.      ..=~#'..   ",
"                       ..&]#$..       ..%@'$.   ",
"                       .-&)#$.         .^)'+.   ",
"                       .-&{#..         .,-#+.   ",
"                       .=>{'.          .]=#'.   ",
"                       .)%{'.          .=-{'.   ",
"     ..........................        ......   ",
"    .=//(_:<<[[[[[[[[[[[}&&>^|'.                ",
"    .123*>%%%]444444444=~)5;{#$.                ",
"    .6:<&^%]==---------7));;{#$.                ",
"    .13:&>%%%]===444444-~);@{'$.                ",
"    .63<&^%]==----------)))5@#$.                ",
"    .6:<&>%%%]4====4444=~);@@#$.       ...      ",
"    ./<8>^%]==----------)));@#$.       .9..     ",
"    .6<<&>%%%]==4444=4==~));!#$.       .99..    ",
"    ./<0>^%]4=---------7))@@{'$.       .999..   ",
"    .6<<>>%%%]==========~)@@{#$.  ......9999..  ",
"    .13<&^%]==---------7))@@{#$.  .9999999999.  ",
"    ./<8>>%%%]=========-~);@!{$.  .9999999999.  ",
"    .6<<>^%]==----------))@{{{$.  ......9999..  ",
"    .13<&>%%%]=444======~)@@{5$.       .999..   ",
"    ./<[>^%]==----------));@{)$.       .99..    ",
"    ./<[^>%%%]======4=4=~)@@{)$.       .9..     ",
"    ./0[^^%]==----------))@!{=$.       ...      ",
"    ./<[>>%%%]==4444444=~)@@{4$.                ",
"    .6<8>^%]==----------))@;;4$.                ",
"    ./<8>%4=-7~~~~~~~~~~5;@;)4$.                ",
"    ./[[>%4=--777---7-7-)))-)=$.                ",
"    ./[*^%=-~~~~~~7----]%%%%){$.                ",
"    .{=-);{{{{{{{{{{#{#{'''''$a.                ",
"     ..........................                 ",
"                                                ",
"                                                ",
"                                                ",
"                                                ",
"                                                "};
